# xmcd CD database file
# Copyright (C) 1993-1998 Ti Kan
# 
# Track frame offsets:
#     150
#     12335
#     18030
#     30810
#     62902
#     89812
#     108280
#     119477
#     146287
#     180525
#     199697
#     223417
#     260625
#     298565
#     316505
# 
# Disc length: 4524 seconds
# 
# Revision: 1
# Processed by: cddbd v1.4b41PL1 Copyright (c) Steve Scherf et al.
# Submitted via: DiscPlay 4.0.4
# 
DISCID=d011aa0f
DTITLE=Eric Clapton - Living On Blues Power Vol. 1 [CD2]
DYEAR=1900
DGENRE=
TTITLE0=Easy Now
TTITLE1=Twist And Shout
TTITLE2=After Midnight
TTITLE3=Eyesight To The Blind
TTITLE4=Knockin' On Heavens Door
TTITLE5=It's Too Late
TTITLE6=Well Allright
TTITLE7=Keep On Growing
TTITLE8=Bell Bottom Blues
TTITLE9=High Up On A Mounatain Top
TTITLE10=Motherless Children
TTITLE11=Layla
TTITLE12=Mainline Florids
TTITLE13=Knockin' On Heavens Door
TTITLE14=Knockin' On Heavens Door
EXTD=
EXTT0=
EXTT1=
EXTT2=
EXTT3=
EXTT4=
EXTT5=
EXTT6=
EXTT7=
EXTT8=
EXTT9=
EXTT10=
EXTT11=
EXTT12=
EXTT13=
EXTT14=
PLAYORDER=
